# xmcd CD database file
#
# Track frame offsets:
#	150
#	23016
#	72057
#	96939
#	119931
#	164797
#	184850
#	235456
#	262272
#	278013
#	302236
#
# Disc length: 4263 seconds
#
# Revision: 1
# Processed by: cddbd v1.5PL3 Copyright (c) Steve Scherf et al.
# Submitted via: CDex 1.51
#
DISCID=a810a50b
DTITLE=Tommy Castro - No Foolin'
DYEAR=1994
DGENRE=Blues
TTITLE0=Mammer-Jammer
TTITLE1=Sweet Little Angel
TTITLE2=Can't Get Next to You
TTITLE3=You Got Somethin'
TTITLE4=Let Me Love You Baby
TTITLE5=Me and My Guitar
TTITLE6=Stone Crazy
TTITLE7=Woke Up This Mornin'
TTITLE8=Midnight Mover
TTITLE9=All Night Long
TTITLE10=Clemency
EXTD=YEAR: 1994
EXTT0=
EXTT1=
EXTT2=
EXTT3=
EXTT4=
EXTT5=
EXTT6=
EXTT7=
EXTT8=
EXTT9=
EXTT10=
PLAYORDER=
